<svg id="Calque_1" data-name="Calque 1" xmlns="http://www.w3.org/2000/svg" viewBox="0 0 300 300"><defs><style>.cls-1{fill:#c40005;}.cls-2{fill:#f8c617;}</style></defs><title>macdo</title><path class="cls-1" d="M160.68,199.69c.09-2.06.12-3.54.23-5,1.67-22.07,2.77-44.2,5.29-66.16,1.2-10.45,4.76-20.71,8-30.81,1.57-4.89,3.85-10.94,10.19-11s8.27,6.11,10.16,10.94a125.73,125.73,0,0,1,5.73,18.57c5.83,26.28,7.76,53,8.37,79.85.31,13.93.5,13.83,14.44,13.16,3.36-.15,4.23-1.5,4.19-4.58-.34-28.93-3.36-57.51-11.6-85.34C212,107,207.49,94.92,198.81,85.06c-8.9-10.11-19.33-10.52-28.29-.51a76.43,76.43,0,0,0-10.87,16.62c-3.25,6.43-5.41,13.42-8.42,21.12-.92-2.55-1.41-4.43-2.25-6.14-4.65-9.53-8.27-19.8-14.34-28.33C124.42,73.5,111.4,74,101.4,88.41a95.18,95.18,0,0,0-10.88,21.22c-10.43,28.3-13.63,57.88-14.45,87.81-.34,12.36-.38,12.13,12.09,12.42,4.83.11,6.1-1.35,6.16-6.13.33-27,1.39-54,6.79-80.53a155.42,155.42,0,0,1,9.22-29.91c3.88-9.1,10.86-9,15.67-.2a73,73,0,0,1,6.29,15.69c7.58,27.51,9.26,55.76,10,84.1.06,2.24,0,4.49,0,6.81Z"/><path class="cls-1" d="M263.16,60V228c-.34,3.75-.81,7.5-1,11.26-.51,10.74-6.4,16.45-17.28,16.79-7.25.23-14.49.63-21.73,1h-142l-26.28-1c-9.05-.34-15.53-6.82-15.72-15.83-.11-5,0-9.95-.16-14.93-.24-10.08-.55-20.17-.84-30.25V52a29.93,29.93,0,0,0,.78-3.34c1.26-9.82,6.56-14.54,16.43-14.78,8.27-.21,16.53-.58,24.79-.88h157c3.11.32,6.2.78,9.32.94,10.18.52,15.5,6,15.88,16.26C262.48,53.51,262.88,56.77,263.16,60Z"/><path class="cls-2" d="M227.28,204.63v.15a5,5,0,0,1-.72,3.08h-16c-1.6-1.72-1.73-5.17-1.88-11.82-.6-26.85-2.53-53.56-8.36-79.85a126,126,0,0,0-5.73-18.56c-1.89-4.83-3.72-11-10.16-10.94s-8.62,6.12-10.19,11c-3.24,10.1-6.8,20.35-8,30.8-2.53,22-3.62,44.1-5.29,66.16-.11,1.48-.14,3-.23,5H142.31c0-2.33.06-4.57,0-6.81-.76-28.34-2.44-56.59-10-84.1A72.79,72.79,0,0,0,126,93.09c-4.81-8.76-11.79-8.91-15.67.2a155.32,155.32,0,0,0-9.22,29.9c-4.9,24.1-6.23,48.58-6.68,73.09q-.06,3.72-.11,7.44a9,9,0,0,1-.75,4.14H77.05C76.2,206.74,76,205,76,202c0-1.29,0-2.81.09-4.59l0-1.16c.87-29.54,4.13-58.72,14.42-86.65A95,95,0,0,1,101.4,88.41c10-14.43,23-14.92,33.23-.59,6.08,8.52,9.7,18.8,14.35,28.32.83,1.72,1.33,3.6,2.24,6.15,3-7.7,5.18-14.69,8.42-21.13a77,77,0,0,1,10.87-16.61c9-10,19.4-9.6,28.29.5,8.69,9.87,13.23,21.91,16.88,34.23C223.1,144.35,226.29,170,227.09,196Q227.24,200.33,227.28,204.63Z"/><path class="cls-2" d="M227.28,204.63v3.23H208.64V196h18.45Q227.24,200.33,227.28,204.63Z"/><path class="cls-2" d="M94.61,196.28v11.58H76V202c0-1.29,0-2.81.09-4.59l0-1.16Z"/></svg>